PathFileType	4	(X/Y/Z)	C:\Users\ebm\Documents\Erivelton\Erivelton2\wc4.trc
DataRate	CameraRate	NumFrames	NumMarkers	Units	OrigDataRate	OrigDataStartFrame	OrigNumFrames
150.00	150.00	      7	28	mm	150.00	925	      1232
Frame#	Time	IJ			PX			C7			T8			RAC			RAS			RPS			RAI			RPI			RLE			RME			RRS			RUS			R3M			R5M			LAC			LAS			LPS			LAI			LPI			LLE			LME			LRS			LUS			L3M			L5M			RW			LW			V_mid_elbow_r			V_mid_elbow_l			V_mid_wrist_r			V_mid_wrist_l			V_mid_trunk_low			V_mid_trunk_upp			
		X1	Y1	Z1	X2	Y2	Z2	X3	Y3	Z3	X4	Y4	Z4	X5	Y5	Z5	X6	Y6	Z6	X7	Y7	Z7	X8	Y8	Z8	X9	Y9	Z9	X10	Y10	Z10	X11	Y11	Z11	X12	Y12	Z12	X13	Y13	Z13	X14	Y14	Z14	X15	Y15	Z15	X16	Y16	Z16	X17	Y17	Z17	X18	Y18	Z18	X19	Y19	Z19	X20	Y20	Z20	X21	Y21	Z21	X22	Y22	Z22	X23	Y23	Z23	X24	Y24	Z24	X25	Y25	Z25	X26	Y26	Z26	X27	Y27	Z27	X28	Y28	Z28	

925	6.160	3090.09033	1019.16821	118.42789	3083.15771	853.25000	133.45537	2968.32471	1131.50244	111.67316	2877.76660	991.61548	120.09571	3007.93823	1083.07556	316.31638	2908.92285	956.34662	399.34976	2878.64551	994.27728	388.03738	2853.76318	912.03662	433.37027	2818.94727	951.62085	422.41992	2779.82764	894.36841	451.90881	2753.38330	876.68909	374.85477	2907.81567	657.88104	411.29572	2864.60645	644.74103	454.28268	2933.83447	590.24493	452.27585	2900.04272	573.36316	460.10599	2999.10010	1078.79883	-63.61555	2899.41821	986.28876	-143.74765	2865.80103	1002.47357	-112.66068	2847.70630	935.52295	-180.39641	2808.06567	952.85846	-146.30579	2783.09741	874.33752	-212.90750	2746.45776	863.67670	-141.05070	2903.28540	643.47961	-171.13611	2863.92993	615.68219	-212.99101	2936.76416	575.60138	-209.61786	2900.38208	560.34241	-217.55312	2967.54346	299.52664	434.46222	3000.03979	299.33313	-193.91641	
926	6.167	3098.22314	1019.20917	119.00454	3091.09009	853.28693	134.07898	2976.46802	1131.49390	112.14868	2885.78564	991.67761	120.60447	3015.79834	1083.24023	316.72012	2915.80322	956.95612	399.25632	2885.77368	995.13611	387.82346	2860.21582	912.92908	432.97128	2825.77002	952.74225	421.83270	2786.08862	895.69885	451.04819	2759.83228	878.44904	373.78168	2911.68384	658.13660	409.79196	2868.86816	645.07227	452.72028	2937.70142	590.43652	450.66089	2903.89600	573.68939	458.57556	3007.04883	1078.90991	-63.06963	2906.79956	987.10828	-143.02216	2873.33667	1003.51215	-111.85596	2854.77319	936.60626	-179.43181	2815.13257	954.21613	-145.27768	2789.48364	875.87024	-211.70038	2752.82080	865.74121	-139.71490	2906.60645	643.54358	-169.65625	2866.96631	616.16901	-211.69165	2939.66309	575.42731	-207.65167	2903.11108	560.62823	-215.93571	2975.34839	299.57062	434.83276	3007.80005	299.27075	-193.45622	
927	6.173	3106.05249	1019.16144	119.50349	3099.01123	853.42163	134.35011	2984.32983	1131.57141	112.75646	2893.77295	991.72748	121.07247	3023.61377	1083.38599	317.10141	2922.89453	957.47546	399.19980	2893.05688	995.80670	387.64017	2866.90137	913.68463	432.51660	2832.64771	953.63550	421.35767	2792.65796	896.76147	450.28809	2766.46362	879.88867	372.86624	2915.86938	658.11664	408.13351	2872.76587	645.22668	451.56589	2941.76709	590.54492	448.99442	2908.04419	573.70972	456.94070	3014.97681	1079.12720	-62.55465	2914.22241	987.82642	-142.30765	2880.84717	1004.37805	-111.12641	2861.76147	937.54608	-178.50943	2822.29370	955.35657	-144.29417	2796.04199	877.13257	-210.52635	2759.47827	867.63422	-138.48485	2909.23193	643.21930	-167.18813	2870.29712	616.37134	-210.36874	2942.69263	575.21082	-206.08546	2906.29492	560.42450	-214.35893	2983.19189	299.55905	435.20703	3015.79419	299.20117	-192.96425	
928	6.180	3114.09155	1019.27832	119.83761	3106.84497	853.36890	134.91031	2992.28687	1131.69873	113.22861	2901.73853	991.83972	121.58944	3031.49414	1083.50513	317.48199	2930.11377	957.69580	398.92072	2900.46240	996.25708	387.60236	2873.80591	914.17328	432.16409	2839.74731	954.29767	420.98715	2799.36841	897.47009	449.56567	2773.41943	881.15747	372.09485	2920.78540	658.07599	407.07205	2877.23901	645.10834	450.24554	2946.14063	590.35602	447.68527	2912.56885	573.47809	455.26935	3022.81250	1079.23242	-61.98318	2921.66357	988.29669	-141.59703	2888.49683	1005.09637	-110.47182	2868.87793	938.27344	-177.74783	2829.57544	956.32452	-143.34665	2802.73193	878.18317	-209.41240	2766.28271	869.13422	-137.22986	2912.81494	642.80170	-165.61308	2874.27124	616.42316	-208.82091	2946.04712	575.00262	-204.60229	2909.72461	560.30743	-212.67766	2990.89526	299.57224	435.63474	3024.17480	299.26682	-192.42160	
929	6.187	3122.01123	1019.19244	120.44106	3114.56421	853.26501	135.13724	3000.33228	1131.78162	113.68938	2909.60669	991.96753	122.04875	3039.35596	1083.49365	317.92789	2937.36133	957.83789	398.88715	2907.98584	996.58130	387.60281	2880.82617	914.38849	431.89670	2847.04980	954.71088	420.58737	2806.31738	898.06836	448.91327	2780.50684	882.05499	371.25119	2925.35449	657.54773	405.41989	2882.17773	644.76758	449.00461	2950.72754	590.14868	446.44040	2917.23242	573.03235	453.73196	3030.88892	1079.38196	-61.53867	2929.23706	988.70441	-140.92734	2896.06299	1005.61603	-109.71741	2876.14941	938.86200	-176.87889	2836.98828	957.03162	-142.45998	2809.80518	878.93372	-208.37469	2773.27246	870.35632	-136.20975	2917.40918	642.54614	-164.01874	2878.46094	616.24438	-207.37180	2950.02783	574.85156	-203.20218	2913.63989	560.17468	-211.15245	2998.65137	299.51529	436.05475	3031.98145	299.26956	-192.01622	
930	6.193	3129.88525	1019.18878	120.80985	3122.44995	853.34387	135.59743	3008.27661	1131.84253	114.16199	2917.48901	992.00562	122.53680	3047.23877	1083.48303	318.36374	2944.86548	957.91321	398.99014	2915.30347	997.04932	387.80435	2888.10278	914.44513	431.48309	2854.37500	954.88159	420.31808	2813.50488	898.21918	448.28781	2787.78857	882.68304	370.57196	2930.62061	657.00092	404.11594	2887.40381	644.32635	447.85913	2955.88037	589.86700	445.20718	2922.14819	572.30042	452.15729	3038.69434	1079.42944	-61.09578	2936.61548	988.86908	-140.33928	2903.74731	1005.94330	-109.04235	2883.55518	939.16534	-176.02322	2844.53613	957.49988	-141.60616	2816.85449	879.42084	-207.50162	2780.49951	871.31616	-135.13269	2922.42163	642.21155	-162.64493	2883.07910	615.96338	-206.01685	2954.83838	574.67255	-201.85526	2918.42065	559.73120	-209.58310	3006.41504	299.53723	436.49802	3039.16992	299.23297	-191.75049	
931	6.200	3137.87988	1019.22400	121.24725	3130.21655	853.48352	136.08347	3016.24585	1131.91565	114.66943	2925.33667	992.08807	122.98650	3055.25781	1083.43958	318.77661	2952.47559	957.64520	398.79709	2923.26709	996.57483	387.70276	2895.55615	914.25458	431.23648	2861.93359	954.83020	420.15350	2820.83057	898.21997	447.83160	2795.27979	883.03601	369.95056	2936.27246	656.35144	403.09000	2893.46021	643.62683	446.98016	2961.44067	589.46381	444.28265	2927.62769	571.67682	451.01828	3046.57007	1079.37842	-60.59751	2945.24805	989.21069	-139.55772	2911.46729	1006.10974	-108.47927	2891.07471	939.30853	-175.27104	2852.01123	957.77484	-140.87131	2824.21704	879.60675	-206.61543	2787.82520	871.88977	-134.22409	2927.90747	641.73291	-161.42813	2888.26758	615.40234	-204.57060	2959.63281	574.43060	-200.70734	2923.53491	559.27325	-208.24307	3014.08350	299.53485	436.88593	3047.45288	299.33191	-191.20688	
